<svg enable-background="new 0 0 44 44" viewBox="0 0 44 44" xmlns="http://www.w3.org/2000/svg">
    <path
        d="m22.1 1.5c11.3 0 20.5 9.2 20.5 20.5s-9.2 20.5-20.5 20.5-20.5-9.2-20.5-20.5 9.1-20.5 20.5-20.5zm0 3c-9.7 0-17.5 7.8-17.5 17.5s7.8 17.5 17.5 17.5 17.5-7.8 17.5-17.5-7.9-17.5-17.5-17.5zm.2 24.8c.9 0 1.7.7 1.7 1.7 0 .9-.7 1.6-1.7 1.6-.9 0-1.7-.7-1.7-1.6.1-.9.8-1.7 1.7-1.7zm0-18.2c3.7 0 6.6 3 6.6 6.6 0 2-1.2 3.7-3.5 5.1-1.1.7-1.7 1.9-1.7 3.2v.2c0 .8-.6 1.4-1.4 1.4s-1.4-.6-1.4-1.4v-.2c0-2.2 1.1-4.3 3-5.5 1.5-1 2.2-1.9 2.2-2.8 0-2.1-1.7-3.8-3.8-3.8s-3.8 1.7-3.8 3.8c0 .8-.6 1.4-1.4 1.4s-1.4-.6-1.4-1.4c0-3.6 3-6.6 6.6-6.6z"
        fill="#fa9e3b" />
</svg>