<svg enable-background="new 0 0 44 44" viewBox="0 0 44 44" xmlns="http://www.w3.org/2000/svg">
    <path
        d="m21.8 2.9c10.6 0 19.3 8.6 19.3 19.3s-8.6 19.3-19.3 19.3c-2.7 0-4.7-.4-7.2-1.2l-.9-.3-1.1-.3-.4-.1c-.1 0-.3-.1-.4-.1-2.2-.5-4-.1-7 1.8-1.5.9-3-.9-1.9-2.2l.1-.2.2-.3c.3-.4.6-.9.9-1.3.9-1.6 1.3-3.1 1.2-4.5-.1-.5-.2-.9-.4-1.3-1.5-2.8-2.3-5.9-2.3-9.2 0-10.7 8.6-19.4 19.2-19.4zm0 3c-9 0-16.3 7.3-16.3 16.3 0 2.7.7 5.4 2 7.8.4.7.6 1.5.7 2.4.2 1.4 0 2.8-.6 4.2v.1h.1c1.5-.4 2.9-.4 4.4-.1l.3.1c.2.1.5.1.7.2l.5.1h.4l2 .6c2 .6 3.7.9 5.8.9 9 0 16.3-7.3 16.3-16.3s-7.3-16.3-16.3-16.3zm7.3 13.9c1.1 0 2 .9 2 2s-.9 2-2 2-2-.9-2-2 .9-2 2-2zm-6.9 0c1.1 0 2 .9 2 2s-.9 2-2 2-2-.9-2-2 .9-2 2-2zm-6.9 0c1.1 0 2 .9 2 2s-.9 2-2 2-2-.9-2-2 .9-2 2-2z"
        fill="#4b52e3" />
</svg>