<svg enable-background="new 0 0 44 44" viewBox="0 0 44 44" xmlns="http://www.w3.org/2000/svg">
    <path d="m12.8 4c4.8 0 8.7 3.9 8.7 8.7v4.9c0 2.1-1.7 3.8-3.8 3.8h-4.9c-4.8 0-8.7-3.9-8.7-8.7s3.9-8.7 8.7-8.7zm0 3c-3.1 0-5.7 2.6-5.7 5.7s2.4 5.6 5.5 5.7h.2 4.9c.4 0 .8-.3.8-.7v-.1-4.9c0-3.1-2.6-5.7-5.7-5.7z" fill="#05c376" />
    <path d="m17.7 23.6c2.1 0 3.8 1.7 3.8 3.8v4.9c0 4.8-3.9 8.7-8.7 8.7s-8.7-3.9-8.7-8.7 3.9-8.7 8.7-8.7zm0 3h-4.9c-3.1 0-5.7 2.6-5.7 5.7s2.6 5.7 5.7 5.7 5.6-2.4 5.7-5.5v-.2-4.9c0-.4-.3-.8-.7-.8z" fill="#fbc235" />
    <path d="m32.4 4c4.8 0 8.7 3.9 8.7 8.7s-3.9 8.7-8.7 8.7h-4.9c-2.1 0-3.8-1.7-3.8-3.8v-4.9c-.1-4.8 3.8-8.7 8.7-8.7zm0 3c-3.1 0-5.6 2.4-5.7 5.5v.2 4.9c0 .4.3.8.7.8h.1 4.9c3.1 0 5.7-2.6 5.7-5.7s-2.6-5.7-5.7-5.7z" fill="#238bee" />
    <path d="m32.4 23.6c4.8 0 8.7 3.9 8.7 8.7s-3.9 8.7-8.7 8.7-8.7-3.9-8.7-8.7v-4.9c0-2.1 1.7-3.8 3.8-3.8zm0 3h-4.9c-.4 0-.8.3-.8.7v.1 4.9c0 3.1 2.6 5.7 5.7 5.7s5.7-2.6 5.7-5.7-2.4-5.6-5.5-5.7z" fill="#ec6063" />
</svg>