<svg xmlns="http://www.w3.org/2000/svg" width="41px" height="41px">
    <path fill-rule="evenodd" fill="rgb(221, 221, 221)"
        d="M25.020,20.639 L39.633,35.252 C40.846,36.463 40.846,38.425 39.633,39.634 C38.425,40.846 36.461,40.846 35.251,39.634 L20.637,25.022 L6.024,39.634 C4.813,40.846 2.852,40.846 1.639,39.634 C0.429,38.425 0.429,36.463 1.639,35.252 L16.253,20.639 L1.639,6.026 C0.429,4.814 0.429,2.853 1.639,1.643 C2.852,0.431 4.813,0.431 6.024,1.643 L20.637,16.255 L35.251,1.643 C36.461,0.431 38.425,0.431 39.633,1.643 C40.846,2.853 40.846,4.814 39.633,6.026 L25.020,20.639 Z" />
</svg>
