<svg enable-background="new 0 0 44 44" viewBox="0 0 44 44" xmlns="http://www.w3.org/2000/svg">
    <path
        d="m39.8 13.5c.9.3 1.4 1.1 1.1 1.9-.7 1.5-1.7 3-3 4.2-.3.2-.5.5-.8.7l4.5 3.7c.7.6.7 1.5 0 2.1-.3.3-.8.4-1.3.4s-.9-.2-1.3-.4l-4.7-3.9c-.9.5-1.8.9-2.8 1.3l2.9 5c.4.7 0 1.6-.9 2-.4.2-.9.2-1.4.1s-.8-.4-1-.8l-3-5.3c-1.3.3-2.6.5-3.9.6v4.6c0 .8-.8 1.5-1.8 1.5s-1.8-.7-1.8-1.5v-4.6c-1.5-.1-3-.3-4.5-.6l-3 5.3c-.2.4-.6.6-1 .8s-1 .1-1.4-.1c-.9-.3-1.3-1.2-.9-2l2.9-5.1c-.9-.4-1.8-.8-2.6-1.2l-4.6 3.8c-.3.3-.8.4-1.3.4s-.9-.2-1.3-.4c-.7-.6-.7-1.5 0-2.1l4.3-3.6c-.3-.3-.6-.5-.9-.8-1.3-1.1-2.3-2.5-3-4.1-.3-.5-.1-1 .3-1.4s1.1-.6 1.7-.5 1.2.5 1.4 1c.5 1.1 1.3 2.2 2.3 3.2 3 2.9 7.8 4.6 13 4.6s10-1.8 13.1-4.6c1-1 1.8-2.1 2.4-3.3.3-.8 1.4-1.2 2.3-.9z"
        fill="#333" />
</svg>