<svg enable-background="new 0 0 44 44" viewBox="0 0 44 44" xmlns="http://www.w3.org/2000/svg">
    <path
        d="m22.4 8h.2.3.1.4c7.5.6 14 4.8 19.3 12.1l.1.2c.7 1 .6 2.3-.1 3.3l-.1.4-.3.4c-5.3 7-11.6 10.9-18.9 11.5l-.4.1h-.1c-.2 0-.3 0-.5 0h-.5-.5-.2c-.1 0-.2 0-.3 0h-.1-.5c-7.5-.6-14-4.8-19.3-12.1l-.1-.2c-.7-1-.6-2.3 0-3.3l.2-.4.3-.4c5.3-6.9 11.6-10.9 18.9-11.5h.5.1.5.5zm0 3h-.5-.5c-6.9.3-12.8 4-17.8 10.7l-.2.3h-.1c5 6.9 11 10.6 17.9 11h.5.3.2c6.9-.3 12.8-4 17.8-10.7l.2-.2h.1c-5-7-10.9-10.7-17.9-11.1zm-.5 2.5c4.4 0 8 3.6 8 8s-3.6 8-8 8-8-3.6-8-8 3.5-8 8-8zm0 3c-2.8 0-5 2.2-5 5s2.2 5 5 5 5-2.2 5-5c0-2.7-2.3-5-5-5z"
        fill="#333" />
</svg>