<svg height="263" width="250" xmlns="http://www.w3.org/2000/svg">
    <linearGradient id="a" x1="0%" x2="0%" y1="100%" y2="0%">
        <stop offset="0" stop-color="#d2d9fa" />
        <stop offset="1" stop-color="#8597ec" />
    </linearGradient>
    <linearGradient id="b" x1="0%" x2="0%" y1="100%" y2="0%">
        <stop offset="0" stop-color="#dbe0f9" />
        <stop offset="1" stop-color="#fff" />
    </linearGradient>
    <linearGradient id="c" x1="0%" x2="100%" y1="0%" y2="0%">
        <stop offset="0" stop-color="#d2d9fa" />
        <stop offset="1" stop-color="#abb8f2" />
    </linearGradient>
    <g fill-rule="evenodd">
        <path d="m124.998-.002c69.035 0 125 55.965 125 125.001s-55.965 125-125 125c-69.036 0-125-55.964-125-125s55.964-125.001 125-125.001z" fill="url(#a)" />
        <path d="m78.999 50.008h108c16.569 0 30.001 13.431 30.001 30v139.999c0 16.569-13.432 30-30.001 30h-108c-16.568 0-29.999-13.431-29.999-30v-139.999c0-16.569 13.431-30 29.999-30z" fill="url(#b)" opacity=".302" />
        <path d="m56 63.007h128c11.045 0 19.999 8.955 19.999 20v160c0 11.046-8.954 20-19.999 20h-128c-11.046 0-20.001-8.954-20.001-20v-160c0-11.045 8.955-20 20.001-20z" fill="url(#b)" />
        <g fill="url(#c)">
            <path
                d="m173 102h-106c-3.867 0-7.001-3.134-7.001-7s3.134-7 7.001-7h106c3.865 0 6.999 3.134 6.999 7s-3.134 7-6.999 7zm-106 20h106c3.865 0 6.999 3.134 6.999 7s-3.134 7-6.999 7h-106c-3.867 0-7.001-3.134-7.001-7s3.134-7 7.001-7zm0 34h46c3.866 0 7 3.134 7 7s-3.134 7-7 7h-46c-3.867 0-7.001-3.134-7.001-7s3.134-7 7.001-7z" />
            <path
                d="m163.405 200 14.842-14.842c2.325-2.325 2.325-6.093 0-8.418-2.324-2.326-6.093-2.326-8.418 0l-14.842 14.842-14.841-14.842c-2.325-2.326-6.092-2.326-8.419 0-2.325 2.325-2.325 6.093 0 8.418l14.843 14.842-14.843 14.843c-2.325 2.325-2.325 6.092 0 8.418 1.164 1.163 2.687 1.744 4.21 1.744s3.046-.581 4.209-1.744l14.841-14.842 14.842 14.842c1.162 1.163 2.685 1.744 4.209 1.744 1.523 0 3.046-.581 4.209-1.744 2.325-2.326 2.325-6.093 0-8.418z" />
        </g>
    </g>
</svg>