<svg height="263" width="250" xmlns="http://www.w3.org/2000/svg" xmlns:xlink="http://www.w3.org/1999/xlink">
    <linearGradient id="a" x1="0%" x2="0%" y1="100%" y2="0%">
        <stop offset="0" stop-color="#d2d9fa" />
        <stop offset="1" stop-color="#8597ec" />
    </linearGradient>
    <linearGradient id="b" x1="0%" x2="0%" y1="100%" y2="0%">
        <stop offset="0" stop-color="#dbe0f9" />
        <stop offset="1" stop-color="#fff" />
    </linearGradient>
    <linearGradient id="c">
        <stop offset="0" stop-color="#d2d9fa" />
        <stop offset="1" stop-color="#abb8f2" />
    </linearGradient>
    <linearGradient id="d" x1="0%" x2="100%" xlink:href="#c" y1="0%" y2="0%" />
    <linearGradient id="e" x1="0%" x2="0%" xlink:href="#c" y1="0%" y2="100%" />
    <g fill-rule="evenodd">
        <path d="m124.999-.002c69.034 0 125 55.965 125 125.001s-55.966 125-125 125c-69.036 0-125.001-55.964-125.001-125s55.965-125.001 125.001-125.001z" fill="url(#a)" />
        <path d="m79 50.008h108c16.568 0 29.999 13.431 29.999 30v139.999c0 16.569-13.431 30-29.999 30h-108c-16.569 0-30-13.431-30-30v-139.999c0-16.569 13.431-30 30-30z" fill="url(#b)" opacity=".302" />
        <path d="m55.999 63.007h128.001c11.045 0 20 8.955 20 20v160c0 11.046-8.955 20-20 20h-128.001c-11.045 0-20-8.954-20-20v-160c0-11.045 8.955-20 20-20z" fill="url(#b)" />
        <path d="m172.999 102h-105.999c-3.866 0-7-3.134-7-7s3.134-7 7-7h105.999c3.867 0 7 3.134 7 7s-3.133 7-7 7zm-105.999 20h105.999c3.867 0 7 3.134 7 7s-3.133 7-7 7h-105.999c-3.866 0-7-3.134-7-7s3.134-7 7-7zm0 34h46c3.865 0 7 3.134 7 7s-3.135 7-7 7h-46c-3.866 0-7-3.134-7-7s3.134-7 7-7z"
            fill="url(#d)" />
        <path d="m178.538 176.403c-2.325-2.336-6.092-2.336-8.416 0l-33.88 34.053-14.836-14.912c-2.324-2.337-6.09-2.337-8.415 0-2.326 2.336-2.326 6.122 0 8.458l19.044 19.14c1.162 1.168 2.685 1.753 4.207 1.753 1.523 0 3.045-.585 4.208-1.753l38.088-38.281c2.324-2.336 2.324-6.122 0-8.458z"
            fill="url(#e)" />
    </g>
</svg>