<svg enable-background="new 0 0 44 44" viewBox="0 0 44 44" xmlns="http://www.w3.org/2000/svg"><path d="m23.2 1.5c1.1 0 2.1.4 2.8 1.3.6.7 1 1.4 1.2 2.3l.5 2.3.4.2.4.2 2-1.3c.6-.4 1.4-.7 2.2-.8h.3c1-.2 2 .2 2.8 1l1.7 1.7c.8.8 1.2 1.8 1 2.9-.1.9-.4 1.7-.8 2.3l-1.2 2.1.2.4c0 .1.1.2.1.3v.1l2.1.5c.8.1 1.5.5 2.1 1l.2.2c.8.7 1.3 1.7 1.3 2.8v2.4c0 1.1-.5 2.1-1.3 2.7-.7.5-1.4.9-2.2 1.1l-2.3.6-.1.2-.2.3 1.2 2c.4.6.7 1.3.8 2.1v.3c.1 1.1-.2 2.1-1 2.9l-1.7 1.7c-.8.8-1.8 1.1-2.9 1.1-.9-.1-1.8-.3-2.5-.8l-2-1.3-.3.2c-.1.1-.3.1-.4.2l-.5 2.2c-.1.8-.5 1.5-1 2.1l-.1.2c-.7.8-1.7 1.3-2.8 1.3h-2.4c-1.1 0-2.1-.5-2.7-1.3-.5-.7-.9-1.4-1.1-2.2l-.5-2.2h-.1l-.4-.3c-.1-.1-.3-.1-.4-.2h-.1l-2.2 1.4c-.6.4-1.3.6-2 .6h-.3c-1.1.1-2.1-.3-2.8-1.1l-1.7-1.7c-.8-.8-1.1-1.8-1-2.9.1-.8.4-1.6.8-2.3l1.3-2.2-.1-.1-.1-.3-2.3-.6c-.7-.2-1.3-.5-1.9-.9l-.3-.2c-.9-.7-1.3-1.6-1.3-2.7v-2.4c0-1.1.4-2.1 1.3-2.8.7-.6 1.5-1 2.3-1.2l2.2-.5.1-.3.1-.3-1.3-2.2c-.4-.6-.6-1.3-.7-2v-.3c-.1-1.1.2-2.1 1-2.9l1.7-1.6c.6-.9 1.6-1.3 2.7-1.2.9.1 1.8.3 2.4.8l2 1.3.6-.2c.1-.1.3-.1.4-.2h.1l.5-2.2c.2-.7.4-1.4.9-2l.2-.3c.7-.9 1.7-1.3 2.8-1.3zm0 3h-2.4c-.2 0-.3 0-.4.2-.2.3-.4.7-.5 1l-.8 3c-.1.5-.5.9-1 1.1-.4.1-.7.2-1 .4-.3.1-.7.3-1 .5-.5.3-1.1.2-1.5-.1l-2.8-1.8c-.2-.2-.5-.3-1-.3-.2 0-.4 0-.6.2l-1.7 1.6c-.1.1-.2.3-.2.5.1.4.2.8.4 1.1l1.7 2.9c.3.4.3 1 .1 1.4l-.1.8-.1.3c-.1.3-.2.6-.3.9-.2.5-.6.9-1.1 1.1l-3.2.7c-.2.1-.5.2-.7.4s-.3.3-.3.6v2.4c0 .2 0 .3.2.4.3.3.7.5 1 .5l3 .7c.5.1.9.5 1.1 1 .1.3.2.5.3.8s.3.6.4.8c.2.5.2 1-.1 1.4l-1.8 3c-.2.3-.3.7-.4 1.1 0 .2 0 .3.1.4l1.7 1.7c.1.1.3.2.5.2.4 0 .7-.1 1-.3l2.7-1.7c.5-.3 1-.3 1.5-.1.3.2.7.3 1 .5.4.1.7.3 1.1.4.5.2.9.6 1 1.1l.7 3c.1.4.3.7.5 1.1.1.1.2.2.4.2h2.4c.2 0 .4-.1.6-.3.3-.3.4-.6.5-.9l.7-3.1c.1-.5.5-1 1-1.1.3-.1.7-.2 1-.4.3-.1.6-.3 1-.4.5-.2 1-.2 1.5.1l2.7 1.7c.3.2.6.3 1 .3.2 0 .4 0 .6-.2l1.7-1.7c.1-.1.2-.3.2-.4 0-.4-.2-.8-.4-1.1l-1.6-2.7c-.3-.5-.3-1 0-1.5.1-.3.3-.6.4-.8.1-.3.2-.6.4-1 .2-.5.6-.9 1.1-1l3.1-.7c.4-.1.7-.3 1.1-.5.1-.1.2-.2.2-.4v-2.4c0-.2-.1-.4-.3-.6-.3-.3-.6-.4-.9-.5l-3-.7c-.6-.1-1-.5-1.1-1.1-.1-.3-.2-.6-.3-.9-.2-.3-.3-.7-.5-1-.2-.5-.2-1 .1-1.4l1.8-2.9c.1-.3.2-.6.3-.9 0-.2 0-.3-.2-.4l-1.7-1.7c-.2-.2-.3-.2-.6-.2-.4 0-.7.1-1 .3l-2.7 1.7c-.4.3-1 .3-1.5.1-.3-.2-.6-.3-1-.4-.3-.1-.7-.3-1-.4-.5-.2-.9-.6-1-1.1l-.7-3.1c-.1-.3-.2-.6-.5-.9-.4-.4-.5-.5-.8-.5zm-1.2 8.6c2.5 0 4.6.9 6.3 2.6s2.6 3.9 2.6 6.3-.9 4.6-2.6 6.3-3.9 2.6-6.3 2.6-4.6-.9-6.3-2.6-2.6-3.9-2.6-6.3.9-4.6 2.6-6.3c1.8-1.8 3.9-2.6 6.3-2.6zm0 3c-1.6 0-3 .6-4.2 1.7-1.2 1.2-1.7 2.5-1.7 4.2s.6 3 1.7 4.2c1.2 1.2 2.5 1.7 4.2 1.7s3-.6 4.2-1.7c1.2-1.2 1.8-2.5 1.8-4.2s-.6-3-1.7-4.2c-1.2-1.2-2.6-1.7-4.3-1.7z" fill="#1983e8"/></svg>